<svg width="22" height="22" viewBox="0 0 22 22" fill="none" xmlns="http://www.w3.org/2000/svg">
<g id="Group 65">
<path id="Ellipse 2" d="M22 11C22 17.0751 17.0751 22 11 22C4.92487 22 0 17.0751 0 11C0 4.92487 4.92487 0 11 0C17.0751 0 22 4.92487 22 11Z" fill="#272F49"/>
<g id="Group 64">
<path id="whiteacrwheel" d="M17.4934 11.2984C14.3334 10.6451 13.6933 9.36509 11.9733 6.91176C8.69334 8.33843 7.60004 12.4584 4.00004 11.3117C3.97337 1.49841 18.4667 1.63173 17.4934 11.2984Z" fill="#7F8690"/>
<path id="whiteacrwheel_2" d="M11.9749 7C13.6949 9.45333 14.7286 9.75997 17.4949 11.3866L17.5216 13.8133C11.1883 17.12 11.0283 16.8133 11.6683 9.75997C8.00162 12.3733 8.93495 13.9867 9.08161 18.08C5.93495 16.6133 3.93495 15.2 4.00162 11.4C7 11.4 9.08161 7 11.9749 7Z" fill="#BBC0C5"/>
<path id="whiteacrwheel_3" d="M11.7999 9C11.1599 16.0533 11.3199 16.36 17.6533 13.0533C17.1066 17.4667 8 19 9.00018 17.5C8.85352 13.4067 8.13328 11.6133 11.7999 9Z" fill="#868B90"/>
</g>
</g>
</svg>
