<svg width="123" height="50" viewBox="0 0 123 50" fill="none" xmlns="http://www.w3.org/2000/svg">
<g id="Group 66">
<path id="whiteacr" d="M75.1061 0.771541C68.8395 1.53154 73.2794 10.2382 67.5328 6.61151C71.4394 -1.64183 65.1594 5.78486 63.0928 8.25152C64.4261 0.864855 67.7061 -1.36179 75.1061 0.771541Z" fill="#D3A59E"/>
<path id="whitecar" d="M75.1068 0.771484C78.2135 1.89148 79.1601 6.47815 80.4001 9.22481C74.5334 9.54481 68.6801 9.53149 62.8135 9.31816L63.0935 8.25147C65.1601 5.7848 71.4401 -1.64188 67.5334 6.61145C73.2801 10.2381 68.8401 1.53148 75.1068 0.771484Z" fill="#AC516D"/>
<path id="whiteacr_2" d="M62.8132 9.31795C68.6799 9.53129 74.5332 9.54461 80.3998 9.22461L81.7598 10.7046C74.9065 10.8913 68.0399 10.6646 61.1865 10.8913L62.8132 9.31795Z" fill="#BAA9AB"/>
<path id="whiteacr_3" d="M59.8797 11.0508C64.9064 13.3574 71.7864 9.3308 68.8531 17.6908C68.6264 15.3041 67.9731 13.9574 66.8931 13.6241C58.8797 12.7041 52.3731 13.2241 45.9331 18.4375C44.3731 19.4375 42.7997 20.4108 41.1731 21.3041C38.9997 22.2375 37.2264 22.8641 36.0264 25.0641C35.1197 24.3175 34.2397 23.5308 33.373 22.7174C42.2397 18.0908 50.0797 11.2374 59.8797 11.0508Z" fill="#BDD2C6"/>
<path id="whiteacr_4" d="M59.88 11.0518L61.1867 10.8918C68.04 10.6651 74.9067 10.8917 81.76 10.7051C88.0533 10.9184 95.4667 10.0118 100.413 14.7318C105.4 19.3584 113.453 21.1851 117.813 26.1584C116.667 26.7317 115.533 27.3318 114.427 27.9718C113.72 30.6118 113.587 33.1984 113.12 35.9851C105.613 35.0251 89.3867 28.8784 85.9867 39.2251C84.9333 41.1318 83.72 42.8251 81.8934 44.0518C81.0134 39.7984 81.1333 39.5184 76.8667 38.4784C76.36 36.7451 75.8933 35.0384 75.2533 33.3317C70.7333 27.5984 69.3333 26.8784 62.9067 30.8651L62.0133 31.3317C55.56 22.4117 45.6267 34.4918 51.1467 41.9718C47.1734 43.1184 44.0133 42.9584 40.04 41.9184C37.9333 33.6784 18.6 30.8784 15.12 40.3317C14.56 41.1451 13.9867 41.9584 13.4133 42.7451C8.92 42.8784 4.48 42.7984 0 42.6918C0.133333 37.4118 7.68001 40.0384 9.80001 33.7851C6.88001 34.5851 4.16001 35.8251 1.36001 36.9718C5.60001 26.7984 21.3067 26.9051 30.04 23.9051C31.16 23.5451 32.2667 23.1451 33.3733 22.7184C34.24 23.5318 35.12 24.3184 36.0267 25.0651C38.3067 25.4651 40.5867 25.4651 42.8934 25.3451L45.28 25.1718C50.56 24.8251 63.1333 27.1318 66.76 24.0651C67.6 21.9984 68.2934 19.8651 68.8534 17.6918C71.7867 9.33177 64.9067 13.3584 59.88 11.0518Z" fill="#ECEFDE"/>
<path id="whiteacr_5" d="M87.2663 13.0254C82.6797 13.4121 78.1463 13.5454 73.5597 13.5054L72.293 13.4788C74.9196 10.8388 83.613 12.1054 87.2663 13.0254Z" fill="#9EB0B6"/>
<path id="whiteacr_6" d="M66.8926 13.625C66.8792 15.6917 66.8792 17.7184 66.6525 19.7717C59.2392 20.1317 52.1592 21.4384 44.8926 22.7317C45.1992 21.2917 45.5859 19.865 45.9326 18.4384C52.3726 13.225 58.8792 12.705 66.8926 13.625Z" fill="#5E8CA3"/>
<path id="whiteacr_7" d="M66.8934 13.625C67.9734 13.9583 68.6267 15.305 68.8534 17.6917C68.2934 19.865 67.6 21.9984 66.76 24.065C59.7334 24.5184 52 23.1717 45.28 25.1717L42.8934 25.345C41.04 23.825 40.88 23.705 41.1734 21.305C42.8 20.4117 44.3734 19.4384 45.9334 18.4384C45.5867 19.865 45.2 21.2917 44.8934 22.7317C52.16 21.4384 59.24 20.1317 66.6533 19.7717C66.88 17.7184 66.88 15.6917 66.8934 13.625Z" fill="#2F4769"/>
<path id="whiteacr_8" d="M72.2926 13.4785L73.5592 13.5052C73.1326 16.0518 72.5859 18.6385 72.4259 21.1985C77.2926 22.8785 91.3592 18.6252 92.7859 24.3852C87.4259 22.7852 72.2126 26.9585 70.1992 21.3052C70.6659 18.7185 71.0526 15.7985 72.2926 13.4785Z" fill="#25355A"/>
<path id="whiteacr_9" d="M73.5601 13.5054C78.1468 13.5454 82.6801 13.4121 87.2668 13.0254C90.7601 13.7854 93.3334 16.132 96.0534 18.332C95.5468 20.2387 95.1201 22.172 94.7601 24.1187L92.7867 24.3854C91.3601 18.6254 77.2934 22.8787 72.4268 21.1987C72.5868 18.6387 73.1334 16.052 73.5601 13.5054Z" fill="#5380A3"/>
<path id="whiteacr_10" d="M41.1731 21.3047C40.8797 23.7047 41.0397 23.8247 42.8931 25.3447C40.5864 25.4647 38.3064 25.4647 36.0264 25.0647C37.2264 22.8647 38.9997 22.238 41.1731 21.3047Z" fill="#7B8188"/>
<path id="whiteacr_11" d="M70.1995 21.3047C72.2128 26.958 87.4261 22.7847 92.7861 24.3847C85.4928 26.3447 77.2795 25.4647 69.7861 25.1713C69.8528 23.878 69.9861 22.598 70.1995 21.3047Z" fill="#717B87"/>
<path id="whiteacr_12" d="M66.7593 24.0651C63.1327 27.1317 50.5593 24.8251 45.2793 25.1717C51.9993 23.1717 59.7327 24.5184 66.7593 24.0651Z" fill="#647085"/>
<path id="whiteacr_13" d="M117.813 26.1582C120.547 29.7582 120.32 33.4249 120.133 37.7182C114.6 35.7582 114.973 33.2382 114.427 27.9716C115.533 27.3316 116.667 26.7315 117.813 26.1582Z" fill="#C34756"/>
<path id="whiteacr_14" d="M62.0134 31.3322C58.9201 34.0122 53.4001 30.3055 53.5334 36.1322C53.1201 41.9855 60.4934 38.0922 60.1068 42.7055C57.0801 42.7989 54.1468 42.3456 51.1468 41.9722C45.6268 34.4922 55.5601 22.4122 62.0134 31.3322Z" fill="#354261"/>
<path id="whiteacr_15" d="M75.2531 33.3319C75.1064 38.4786 74.6664 43.1853 68.2531 42.8919C61.3464 43.5986 60.7731 35.6652 62.9064 30.8652C69.3331 26.8786 70.7331 27.5986 75.2531 33.3319Z" fill="#323F5F"/>
<path id="whiteacr_16" d="M114.427 27.9727C114.973 33.2393 114.6 35.7593 120.133 37.7193C120.773 38.9727 121.4 40.226 122.04 41.4793C118.147 41.3593 114.373 41.346 110.613 42.4393C107.587 42.4793 105.227 38.7993 102.813 37.2393C100.427 34.9326 96.2401 35.4926 93.5601 36.9993C88.0935 38.8926 87.5201 43.386 85.3201 48.026C69.5601 47.6393 52.9868 49.3727 37.4535 47.106C34.9735 35.186 24.0268 33.4926 15.1201 40.3326C18.6001 30.8793 37.9335 33.6793 40.0401 41.9193C41.6535 46.9193 49.6001 45.186 53.5868 45.466C60.9735 44.466 68.0001 47.8927 75.1201 46.106C78.2268 46.546 79.4268 45.9193 81.8935 44.0527C83.7201 42.826 84.9334 41.1327 85.9868 39.226C89.3868 28.8793 105.613 35.026 113.12 35.986C113.587 33.1993 113.72 30.6127 114.427 27.9727Z" fill="#B3BCC1"/>
<path id="whiteacr_17" d="M62.0134 31.3319L62.9067 30.8652C60.7734 35.6652 61.3467 43.5986 68.2534 42.8919C74.6667 43.1853 75.1067 38.4786 75.2534 33.3319C75.8934 35.0386 76.36 36.7453 76.8667 38.4786C76.8 41.1986 76.04 43.5719 75.12 46.1053C68 47.8919 60.9734 44.4653 53.5867 45.4653C49.6 45.1853 41.6534 46.9186 40.04 41.9186C44.0134 42.9586 47.1734 43.1186 51.1467 41.9719C54.1467 42.3453 57.0801 42.7986 60.1067 42.7052C60.4934 38.0919 53.12 41.9853 53.5334 36.1319C53.4 30.3053 58.9201 34.0119 62.0134 31.3319Z" fill="#D1D8DC"/>
<path id="whiteacr_18" d="M67.3067 32.4249C72.96 30.4515 70.4666 36.7716 70.6933 40.0249C65.4533 41.3316 63.76 35.2249 67.3067 32.4249Z" fill="#E1EAED"/>
<path id="whiteacr_19" d="M102.813 37.238C99.4662 37.8647 96.8662 37.8514 93.5596 36.9981C96.2396 35.4914 100.426 34.9314 102.813 37.238Z" fill="#66697A"/>
<path id="whiteacr_20" d="M76.8668 38.4785C81.1334 39.5185 81.0135 39.7985 81.8935 44.0518C79.4268 45.9185 78.2268 46.5452 75.1201 46.1052C76.0401 43.5719 76.8001 41.1985 76.8668 38.4785Z" fill="#38404F"/>
<path id="whiteacr_21" d="M122.04 41.4782C118.32 43.3716 114.6 42.8916 110.613 42.4382C114.373 41.3449 118.147 41.3582 122.04 41.4782Z" fill="#646F7E"/>
<path id="whiteacr_22" d="M37.4531 47.1055C52.9865 49.3721 69.5598 47.6388 85.3198 48.0255C85.1331 48.9455 84.3065 49.3855 82.8532 49.3588C69.5465 49.6655 56.1998 49.3588 42.8798 49.4921C40.5065 49.0654 37.8798 50.2921 37.4531 47.1055Z" fill="#6B899B"/>
</g>
</svg>
